<?xml version="1.0" encoding="iso-8859-1"?>
<!-- Uploaded to: SVG Repo, www.svgrepo.com, Generator: SVG Repo Mixer Tools -->
<!DOCTYPE svg PUBLIC "-//W3C//DTD SVG 1.1//EN" "http://www.w3.org/Graphics/SVG/1.1/DTD/svg11.dtd">
<svg fill="#000000" version="1.1" id="Capa_1" xmlns="http://www.w3.org/2000/svg" xmlns:xlink="http://www.w3.org/1999/xlink" 
	 width="800px" height="800px" viewBox="0 0 569.16 569.16"
	 xml:space="preserve">
<g>
	<g>
		<path d="M471.108,96.392H36.27c-20,0-36.27,16.227-36.27,36.172v304.033c0,19.945,16.27,36.172,36.27,36.172h434.838
			c20,0,36.271-16.227,36.271-36.172V132.564C507.382,112.619,491.108,96.392,471.108,96.392z M409.063,279.894
			c-2.347,3.277-4.587,6.684-5.278,7.484c-9.914,11.506-20.753,22.25-32.381,32.02c-25.566,21.484-55.747,38.799-88.954,44.664
			c-44.967,7.943-95.092-9.125-129.31-38.758c-3.482-3.018-6.762-6.344-9.758-9.914c-3.372-4.021-9.685-6.129-14.483-4
			c-9.394,4.168-18.476,9.211-27.014,14.836c-5.771,3.803-11.353,7.895-16.747,12.215c-7.647,6.127-3.125-5.195-1.49-8.85
			c2.919-6.523,7.295-12.482,12.334-17.586c9.327-9.443,20.967-17.148,32.65-23.326c2.393-1.264,4.832-2.516,7.369-3.73
			c29.773-14.281,62.647-19.192,95.046-13.671c5.174,0.881,12.861,2.684,17.167,3.926c2.598,0.75,5.178,1.57,7.736,2.457
			c22.466,7.791,43.645,20.939,68.033,20.72c10.377-0.096,18.92-1.908,25.163-3.539c4.216-1.076,7.411-2.334,9.58-3.127
			c0.643-0.25,1.19-0.475,1.644-0.666c0.902-0.383-1.358-0.383-5.055-0.176c-1.879,0.107-4.125,0.199-6.699,0.248
			c-4.229,0.068-9.339-0.113-15.085-0.562c-26.332-2.059-47.332-18.997-71.042-28.978c-31.806-13.394-69.232-15.496-102.017-4.302
			c-9.079,3.1-17.846,7.111-26.126,11.952c-4.532,2.65-7.727,3.546-7.775,1.609c-0.037-1.481-0.113-2.986-0.058-3.51
			c0.887-8.433,3.99-16.493,8.604-23.58c18.66-28.654,64.884-42.032,97.593-42.932c44.627-1.227,84.994,20.738,116.727,50.717
			c17.926,16.396,42.782,20.44,56.191,21.386C410.869,273.293,412.014,275.781,409.063,279.894z"/>
		<path d="M532.89,174.893c0,0-1.606,0-3.592,0c-1.986,0-3.593,2.727-3.593,6.086v207.2c0,3.361,1.606,6.086,3.593,6.086h3.592
			c20,0,36.271-16.229,36.271-36.172V211.068C569.16,191.123,552.89,174.893,532.89,174.893z"/>
	</g>
</g>
</svg>