<?xml version="1.0" encoding="iso-8859-1"?>
<!-- Uploaded to: SVG Repo, www.svgrepo.com, Generator: SVG Repo Mixer Tools -->
<svg fill="#000000" height="800px" width="800px" version="1.1" id="Layer_1" xmlns="http://www.w3.org/2000/svg" xmlns:xlink="http://www.w3.org/1999/xlink" 
	 viewBox="0 0 512 512" xml:space="preserve">
<g>
	<g>
		<path d="M392.533,494.933H281.6v-102.4c9.412,0,17.067-7.654,17.067-17.067v-34.133H332.8c9.412,0,17.067-7.654,17.067-17.067
			v-204.8c0-9.412-7.654-17.067-17.067-17.067h-8.533V25.6c0-14.114-11.486-25.6-25.6-25.6h-85.333c-14.123,0-25.6,11.486-25.6,25.6
			v76.8H179.2c-9.421,0-17.067,7.654-17.067,17.067v204.8c0,9.412,7.646,17.067,17.067,17.067h34.133v34.133
			c0,9.412,7.646,17.067,17.067,17.067v102.4H119.467c-4.719,0-8.533,3.814-8.533,8.533c0,4.719,3.814,8.533,8.533,8.533h119.467
			h34.133h119.467c4.71,0,8.533-3.814,8.533-8.533C401.067,498.748,397.244,494.933,392.533,494.933z M204.8,102.4V25.6
			c0-4.71,3.823-8.533,8.533-8.533h85.333c4.702,0,8.533,3.823,8.533,8.533v76.8H204.8z M224.358,279.1
			c-3.328-3.337-3.328-8.73,0-12.066l36.634-36.634H230.4c-1.118,0-2.219-0.23-3.268-0.657c-2.082-0.862-3.746-2.526-4.608-4.617
			c-0.862-2.082-0.862-4.437,0-6.519c0.427-1.05,1.058-1.988,1.843-2.782l51.191-51.192c3.336-3.336,8.738-3.336,12.075,0
			c3.328,3.337,3.328,8.73,0,12.066l-36.634,36.634H281.6c1.109,0,2.21,0.222,3.251,0.657c2.091,0.862,3.755,2.526,4.617,4.617
			c0.862,2.082,0.862,4.437,0,6.519c-0.427,1.05-1.058,1.988-1.843,2.782L236.433,279.1c-1.673,1.664-3.857,2.5-6.033,2.5
			C228.215,281.6,226.031,280.764,224.358,279.1z M238.933,375.467H230.4v-34.133h51.2l0.009,34.133h-8.542H238.933z"/>
	</g>
</g>
</svg>